<svg version="1.1" id="Layer_1" xmlns="http://www.w3.org/2000/svg" xmlns:xlink="http://www.w3.org/1999/xlink" x="0px" y="0px"
	 width="100%" viewBox="0 0 512 512" enable-background="new 0 0 512 512" xml:space="preserve">
<path fill="#000000" opacity="1.000000" stroke="none" 
	d="
M1.000000,183.000000 
	C1.000000,122.000000 1.000000,61.500000 1.000000,1.000000 
	C171.666672,1.000000 342.333344,1.000000 513.000000,1.000000 
	C513.000000,171.666672 513.000000,342.333344 513.000000,513.000000 
	C342.333344,513.000000 171.666672,513.000000 1.000000,513.000000 
	C1.000000,403.166656 1.000000,293.333344 1.000000,183.000000 
M279.013123,70.947838 
	C279.129578,63.948685 278.901337,57.208954 273.949615,51.331226 
	C266.213501,42.148411 256.254395,41.968594 245.798370,43.674351 
	C236.729294,45.153847 230.972855,50.742367 228.865005,59.569729 
	C227.922028,63.518711 228.207886,67.761124 227.009644,71.940948 
	C208.692780,71.901924 190.375931,71.862900 172.018219,70.924454 
	C172.012085,69.265518 171.987000,67.606392 172.002930,65.947670 
	C172.098145,56.034004 167.900253,48.857632 158.643295,44.858856 
	C149.547058,40.929512 135.158371,42.797897 129.059601,48.367451 
	C122.021301,54.795006 120.768913,63.033539 120.035904,71.979622 
	C104.685745,72.038124 89.335587,72.096634 73.232903,72.300850 
	C68.757790,74.076736 64.070168,75.454651 59.850136,77.708206 
	C49.908936,83.016953 44.973713,91.742493 43.228275,103.292625 
	C43.219807,126.076263 43.211338,148.859909 43.067997,172.615356 
	C43.063786,224.916550 43.046547,277.217743 43.060852,329.518951 
	C43.068005,355.667633 43.132755,381.816284 42.974876,408.885803 
	C43.034885,413.936737 43.094898,418.987640 43.019070,424.959564 
	C43.012745,428.124146 42.988335,431.288788 43.003044,434.453278 
	C43.097576,454.791809 59.212067,470.984222 79.585396,470.988403 
	C196.676514,471.012451 313.767609,471.008911 430.858704,470.958344 
	C434.439423,470.956818 438.044617,470.504944 441.596161,469.978027 
	C457.857574,467.565613 470.264832,453.217682 470.836151,436.969788 
	C471.491150,418.343567 470.896088,399.673370 470.996887,380.101410 
	C470.942841,375.728210 470.888763,371.355011 470.971252,366.055267 
	C470.971222,317.477570 470.983307,268.899841 470.964386,220.322128 
	C470.958069,204.188248 470.872101,188.054382 470.988037,171.015381 
	C470.993652,149.825302 471.018097,128.635178 470.964844,107.445251 
	C470.961029,105.935585 470.386841,104.427338 470.019989,102.114128 
	C469.344818,99.466904 468.850677,96.757256 467.963074,94.183281 
	C464.157623,83.147827 450.543854,73.189323 438.656860,72.220734 
	C423.452148,72.094635 408.247437,71.968529 393.011627,70.958679 
	C393.185760,63.528709 392.255524,56.377209 387.036957,50.576874 
	C379.611969,42.324207 369.928894,42.082859 360.014038,43.566494 
	C352.301880,44.720520 346.100220,48.916927 343.571564,56.275509 
	C341.909515,61.112209 342.429413,66.698700 341.042053,71.987343 
	C320.376740,71.940262 299.711426,71.893188 279.013123,70.947838 
z"/>
<path fill="#EAF3F9" opacity="1.000000" stroke="none" 
	d="
M43.171448,407.964966 
	C43.132755,381.816284 43.068005,355.667633 43.060852,329.518951 
	C43.046547,277.217743 43.063786,224.916550 43.388714,172.161713 
	C43.870312,171.652786 44.031193,171.597473 44.639652,171.630310 
	C47.252682,171.734558 49.418133,171.764725 51.583588,171.764755 
	C188.859268,171.766983 326.134949,171.766220 463.410645,171.771606 
	C465.574677,171.771683 467.738739,171.844437 469.927979,172.359314 
	C469.964264,227.448013 469.936798,282.060730 470.065186,336.673096 
	C470.074707,340.711365 469.090393,342.156586 464.819214,342.094421 
	C448.671906,341.859406 432.518951,341.964630 416.368622,342.043152 
	C414.262054,342.053375 412.158325,342.649078 409.585938,342.971161 
	C407.789520,342.969238 406.451599,343.070953 405.132751,342.955017 
	C387.402710,341.396057 370.296631,360.876373 370.818604,377.100800 
	C371.512634,398.674469 370.948883,420.288635 370.462402,441.912842 
	C273.059021,441.949249 176.118652,442.037231 79.178688,441.879333 
	C65.111275,441.856415 54.181709,435.339264 47.852749,422.508972 
	C45.623951,417.990662 44.694290,412.831512 43.171448,407.964966 
M86.134117,313.496826 
	C86.135338,317.829895 86.060059,322.164703 86.156441,326.495636 
	C86.287659,332.392151 88.920403,335.041901 94.723015,335.062531 
	C108.055389,335.109955 121.388206,335.115906 134.720505,335.058746 
	C140.829742,335.032532 143.045929,332.754639 143.069717,326.519867 
	C143.119980,313.354156 143.113998,300.188080 143.073883,287.022308 
	C143.055145,280.869354 140.464813,278.198029 134.295853,278.160248 
	C121.463753,278.081665 108.630592,278.087769 95.798370,278.154510 
	C88.974625,278.190002 86.197716,281.061493 86.148376,287.999573 
	C86.090324,296.165344 86.134529,304.331848 86.134117,313.496826 
M388.513885,264.051849 
	C398.657288,264.051086 408.800995,264.095154 418.944031,264.032593 
	C424.924377,263.995697 427.709778,261.567719 427.787170,255.687897 
	C427.964417,242.221176 427.955688,228.749069 427.784271,215.282196 
	C427.718018,210.076355 425.168671,207.272873 420.178833,207.193283 
	C406.214691,206.970535 392.243225,206.988220 378.278229,207.176941 
	C374.253876,207.231323 371.054382,209.420792 371.004761,213.855591 
	C370.842865,228.320267 370.858856,242.788651 370.990753,257.253906 
	C371.030518,261.614594 373.731384,263.867950 378.044006,264.013672 
	C381.199982,264.120331 384.362091,264.045715 388.513885,264.051849 
M356.793945,220.633209 
	C356.793945,219.800003 356.797363,218.966766 356.793427,218.133575 
	C356.752045,209.400223 354.495270,207.094238 345.889618,207.083282 
	C333.391541,207.067398 320.892944,207.017014 308.395538,207.110672 
	C302.527863,207.154648 299.894501,209.871353 299.871674,215.704269 
	C299.820190,228.868729 299.824646,242.033630 299.866486,255.198151 
	C299.887848,261.914795 302.072113,264.024841 308.947205,264.041779 
	C321.611847,264.072998 334.276672,264.068939 346.941376,264.044312 
	C354.300659,264.029968 356.733582,261.608612 356.777252,254.093506 
	C356.840179,243.262192 356.793457,232.430222 356.793945,220.633209 
M135.798508,349.158997 
	C122.300629,349.121582 108.802368,349.010834 95.305061,349.082001 
	C89.742599,349.111328 86.125206,352.634857 86.074677,358.115875 
	C85.953300,371.280884 85.967216,384.448334 86.066360,397.613708 
	C86.109016,403.277649 89.068237,406.010132 94.795609,406.021881 
	C107.961700,406.048828 121.127937,406.051941 134.294022,406.022156 
	C140.938797,406.007111 142.990707,403.995575 143.008499,397.443817 
	C143.044266,384.277771 142.866791,371.108856 143.098053,357.946808 
	C143.183884,353.061981 141.137909,350.458191 135.798508,349.158997 
M312.630432,278.031616 
	C311.964142,278.031647 311.297821,278.029907 310.631531,278.031952 
	C302.108398,278.058014 299.972260,280.158234 299.969360,288.538177 
	C299.965149,300.864594 299.959167,313.191040 299.971832,325.517456 
	C299.979706,333.157318 301.783722,335.004578 309.270874,335.014709 
	C321.597290,335.031342 333.923737,335.022003 346.250183,335.018585 
	C354.522339,335.016296 356.915100,332.700836 356.944641,324.471069 
	C356.987701,312.477936 356.983124,300.484436 356.945496,288.491272 
	C356.923218,281.388123 353.632782,278.070068 346.579041,278.043152 
	C335.585358,278.001160 324.591370,278.031830 312.630432,278.031616 
M214.032059,299.502075 
	C214.030899,295.005249 214.078751,290.507751 214.014816,286.011810 
	C213.950455,281.485199 211.279007,278.190155 206.838364,278.126587 
	C193.017761,277.928589 179.191376,277.949371 165.369827,278.108734 
	C161.007446,278.158997 157.211502,281.745117 157.148178,286.045074 
	C156.947128,299.698669 156.888855,313.361023 157.169815,327.011871 
	C157.285858,332.649567 160.262863,334.998596 165.792831,335.009766 
	C178.950119,335.036255 192.107544,335.039703 205.264816,335.010101 
	C212.079849,334.994781 214.006500,332.990173 214.025803,325.983063 
	C214.049194,317.489136 214.031860,308.995117 214.032059,299.502075 
M157.069962,397.924377 
	C158.957336,405.406555 159.721359,406.026367 167.191147,406.029877 
	C180.017075,406.035889 192.843124,406.061554 205.668900,406.017639 
	C211.933929,405.996216 213.998871,403.907654 214.018799,397.592163 
	C214.059265,384.766357 214.036377,371.940308 214.029678,359.114380 
	C214.025772,351.617798 211.546494,349.100983 203.848923,349.061066 
	C191.689606,348.997986 179.529602,349.012634 167.370102,349.056183 
	C160.349762,349.081329 157.072723,352.426666 157.053711,359.554260 
	C157.020370,372.046967 157.046951,384.539795 157.069962,397.924377 
M245.515213,406.031799 
	C255.994797,406.031128 266.474457,406.049133 276.953949,406.022827 
	C283.282990,406.006927 285.018402,404.323792 285.032837,398.120422 
	C285.063812,384.813080 285.054901,371.505585 285.037323,358.198181 
	C285.029449,352.247131 282.781464,349.286926 276.962250,349.163208 
	C263.661102,348.880493 250.345734,348.880707 237.044525,349.162292 
	C231.219727,349.285614 228.970398,352.241974 228.962616,358.189911 
	C228.945221,371.497314 228.937195,384.804810 228.966888,398.112183 
	C228.980392,404.166534 230.719223,405.948364 236.538483,406.023071 
	C239.199539,406.057251 241.861374,406.030823 245.515213,406.031799 
M244.546112,278.032379 
	C242.712982,278.032440 240.879837,278.025177 239.046738,278.033844 
	C231.329010,278.070343 228.962296,280.429321 228.958435,288.119110 
	C228.951889,301.117645 228.937500,314.116211 228.967163,327.114685 
	C228.980362,332.901093 230.927246,334.959442 236.714569,334.991974 
	C250.212616,335.067841 263.711639,335.064575 277.209747,334.993988 
	C283.025391,334.963593 285.018066,332.909698 285.031982,327.190155 
	C285.063995,314.025055 285.050812,300.859833 285.040009,287.694641 
	C285.034210,280.638367 282.533783,278.071411 275.528870,278.043152 
	C265.530151,278.002777 255.531143,278.032593 244.546112,278.032379 
M285.043976,227.503189 
	C285.043213,223.509354 285.071747,219.515244 285.034546,215.521744 
	C284.984436,210.141144 282.245331,207.109955 276.890747,207.062729 
	C263.579041,206.945358 250.264755,206.940506 236.953217,207.068039 
	C231.853607,207.116882 228.990280,210.178696 228.974106,215.178146 
	C228.929993,228.823593 228.915237,242.469482 228.979630,256.114777 
	C229.006302,261.767029 231.201965,263.955566 236.859451,263.982605 
	C250.171936,264.046204 263.485016,264.036407 276.797607,263.988770 
	C282.969086,263.966705 285.004181,261.829163 285.032410,255.460419 
	C285.072205,246.474472 285.043518,237.488220 285.043976,227.503189 
z"/>
<path fill="#FB4A34" opacity="1.000000" stroke="none" 
	d="
M469.902771,171.883255 
	C467.738739,171.844437 465.574677,171.771683 463.410645,171.771606 
	C326.134949,171.766220 188.859268,171.766983 51.583588,171.764755 
	C49.418133,171.764725 47.252682,171.734558 44.619202,171.194183 
	C44.100487,148.059677 44.049793,125.449425 43.999100,102.839172 
	C44.973713,91.742493 49.908936,83.016953 59.850136,77.708206 
	C64.070168,75.454651 68.757790,74.076736 73.930115,72.495399 
	C90.336395,72.792854 106.045464,72.895760 121.826233,73.462189 
	C121.914124,84.091812 122.183098,94.265862 121.863579,104.421394 
	C121.623917,112.038788 123.700592,118.508179 129.059906,124.296577 
	C131.481140,129.075287 133.236343,134.071045 136.499603,137.717072 
	C142.194290,144.079758 153.578659,144.901505 160.878021,140.461502 
	C169.565750,135.176987 173.536789,125.582260 170.892975,116.263504 
	C168.279800,107.052704 160.484268,100.560661 151.247955,101.160576 
	C146.172943,101.490211 141.216934,103.652435 136.149994,104.523819 
	C136.127014,93.720070 136.161316,83.380882 136.649261,73.026245 
	C167.532837,73.039902 197.962784,73.069016 228.503784,73.545624 
	C228.650894,84.096642 228.978668,94.210281 228.628632,104.300407 
	C228.359177,112.067459 230.409790,118.640900 235.981598,124.468117 
	C235.982559,132.889679 244.985260,140.958633 252.506454,142.698181 
	C260.533356,144.554688 269.428406,141.035461 274.667175,133.553802 
	C279.407166,126.784470 279.374908,119.394356 275.982849,112.288048 
	C272.512512,105.017693 266.375458,100.541885 258.108582,101.159500 
	C253.017914,101.539825 248.058228,103.673515 242.982086,104.552994 
	C242.971176,93.723709 243.017914,83.361397 243.528412,72.999405 
	C276.662811,73.000114 309.333435,73.000519 342.072510,73.465492 
	C342.154694,84.261978 342.261169,94.594864 342.151215,104.925461 
	C342.070679,112.491203 344.341827,118.992516 349.953644,124.593536 
	C350.897919,135.583511 359.735840,143.082047 371.199799,143.001572 
	C382.761475,142.920410 391.990234,133.611526 391.998596,122.022263 
	C392.006958,110.357780 382.869080,101.292221 371.426941,100.864998 
	C365.917603,100.659286 361.411652,102.608856 356.819946,104.620544 
	C356.809387,93.763222 356.856964,83.377625 357.381104,72.994278 
	C384.949951,72.985870 412.042145,72.975204 439.134369,72.964539 
	C450.543854,73.189323 464.157623,83.147827 467.963074,94.183281 
	C468.850677,96.757256 469.344818,99.466904 470.007324,102.987854 
	C469.927551,126.452492 469.860382,149.043411 469.768005,171.719727 
	C469.742737,171.805115 469.902771,171.883255 469.902771,171.883255 
z"/>
<path fill="#BAD4E5" opacity="1.000000" stroke="none" 
	d="
M470.844116,381.022278 
	C470.896088,399.673370 471.491150,418.343567 470.836151,436.969788 
	C470.264832,453.217682 457.857574,467.565613 441.596161,469.978027 
	C438.044617,470.504944 434.439423,470.956818 430.858704,470.958344 
	C313.767609,471.008911 196.676514,471.012451 79.585396,470.988403 
	C59.212067,470.984222 43.097576,454.791809 43.003044,434.453278 
	C42.988335,431.288788 43.012745,428.124146 43.329395,424.769806 
	C44.107174,426.511292 44.533886,428.453461 45.048565,430.372040 
	C48.920551,444.805878 63.341148,455.987976 78.258240,455.990723 
	C182.559067,456.010101 286.859924,456.023102 391.160522,455.873199 
	C393.631409,455.869629 396.698456,454.553894 398.475006,452.815552 
	C413.836456,437.784454 428.943390,422.493652 444.172028,407.326294 
	C453.019257,398.514648 461.950592,389.787445 470.844116,381.022278 
z"/>
<path fill="#97C0DD" opacity="1.000000" stroke="none" 
	d="
M470.920502,380.561829 
	C461.950592,389.787445 453.019257,398.514648 444.172028,407.326294 
	C428.943390,422.493652 413.836456,437.784454 398.475006,452.815552 
	C396.698456,454.553894 393.631409,455.869629 391.160522,455.873199 
	C286.859924,456.023102 182.559067,456.010101 78.258240,455.990723 
	C63.341148,455.987976 48.920551,444.805878 45.048565,430.372040 
	C44.533886,428.453461 44.107174,426.511292 43.397316,424.309326 
	C43.094898,418.987640 43.034885,413.936737 43.073162,408.425385 
	C44.694290,412.831512 45.623951,417.990662 47.852749,422.508972 
	C54.181709,435.339264 65.111275,441.856415 79.178688,441.879333 
	C176.118652,442.037231 273.059021,441.949249 370.933319,441.953491 
	C376.253662,441.953339 380.639954,441.940033 385.479431,441.950134 
	C392.814606,443.200287 397.674011,440.337433 402.364899,435.316833 
	C412.347687,424.632477 422.922882,414.500000 433.296387,404.182709 
	C445.786835,391.759979 458.320007,379.380157 470.834717,366.981812 
	C470.888763,371.355011 470.942841,375.728210 470.920502,380.561829 
z"/>
<path fill="#D6E8F4" opacity="1.000000" stroke="none" 
	d="
M470.902985,366.518555 
	C458.320007,379.380157 445.786835,391.759979 433.296387,404.182709 
	C422.922882,414.500000 412.347687,424.632477 402.364899,435.316833 
	C397.674011,440.337433 392.814606,443.200287 385.469818,441.489227 
	C385.004639,420.202301 384.968109,399.399567 385.014709,378.597076 
	C385.037323,368.513885 388.210022,359.526062 395.871277,352.803406 
	C400.166534,349.034393 405.298370,346.218781 410.053284,342.973633 
	C412.158325,342.649078 414.262054,342.053375 416.368622,342.043152 
	C432.518951,341.964630 448.671906,341.859406 464.819214,342.094421 
	C469.090393,342.156586 470.074707,340.711365 470.065186,336.673096 
	C469.936798,282.060730 469.964264,227.448013 469.927979,172.359314 
	C469.902771,171.883255 469.742737,171.805115 470.015076,171.828232 
	C470.465790,171.874390 470.644165,171.897446 470.822571,171.920517 
	C470.872101,188.054382 470.958069,204.188248 470.964386,220.322128 
	C470.983307,268.899841 470.971222,317.477570 470.902985,366.518555 
z"/>
<path fill="#404042" opacity="1.000000" stroke="none" 
	d="
M356.904510,72.992027 
	C356.856964,83.377625 356.809387,93.763222 356.771240,105.030022 
	C357.088654,112.677948 359.206207,114.783440 365.856689,114.910675 
	C367.352722,114.939293 368.851746,114.870720 370.345673,114.934525 
	C374.689087,115.120033 378.066681,118.106529 377.836670,121.917625 
	C377.580322,126.165314 375.029938,128.613663 370.815063,128.939560 
	C363.398224,129.513062 356.177521,128.968048 349.945038,124.204460 
	C344.341827,118.992516 342.070679,112.491203 342.151215,104.925461 
	C342.261169,94.594864 342.154694,84.261978 342.113342,73.201141 
	C342.047882,72.297943 342.010040,72.123688 341.972229,71.949425 
	C342.429413,66.698700 341.909515,61.112209 343.571564,56.275509 
	C346.100220,48.916927 352.301880,44.720520 360.014038,43.566494 
	C369.928894,42.082859 379.611969,42.324207 387.036957,50.576874 
	C392.255524,56.377209 393.185760,63.528709 392.562866,71.470703 
	C387.061066,71.936188 382.008026,71.889648 376.970093,71.404022 
	C376.990845,69.301544 376.862244,67.624641 377.028229,65.977425 
	C377.465424,61.639347 374.815155,59.430515 371.330475,58.305088 
	C362.869904,55.572624 356.996613,60.041313 356.997162,68.931305 
	C356.997223,69.929314 357.007355,70.927330 356.935730,72.186935 
	C356.873962,72.629692 356.889221,72.810860 356.904510,72.992027 
z"/>
<path fill="#3F4042" opacity="1.000000" stroke="none" 
	d="
M129.072845,123.905960 
	C123.700592,118.508179 121.623917,112.038788 121.863579,104.421394 
	C122.183098,94.265862 121.914124,84.091812 121.827415,73.206665 
	C121.492249,72.277794 121.227600,72.067978 120.962952,71.858170 
	C120.768913,63.033539 122.021301,54.795006 129.059601,48.367451 
	C135.158371,42.797897 149.547058,40.929512 158.643295,44.858856 
	C167.900253,48.857632 172.098145,56.034004 172.002930,65.947670 
	C171.987000,67.606392 172.012085,69.265518 171.572815,71.436508 
	C166.398209,71.906425 161.668976,71.864288 156.959778,71.389000 
	C157.042908,61.843002 156.217407,60.106377 151.086182,58.557278 
	C142.116119,55.849239 136.959473,59.612801 137.002151,68.840942 
	C137.006744,69.835838 137.040909,70.830612 136.816757,71.953552 
	C136.446640,72.401672 136.321121,72.721680 136.195602,73.041695 
	C136.161316,83.380882 136.127014,93.720070 136.083954,104.921402 
	C136.414627,112.420830 138.736771,114.775673 145.102036,114.906563 
	C146.757187,114.940605 148.416992,114.850975 150.068542,114.936363 
	C154.265808,115.153389 156.986771,117.048347 157.157486,121.562042 
	C157.321671,125.902718 154.785889,128.656082 150.251785,128.967087 
	C142.678406,129.486572 135.342728,128.894730 129.072845,123.905960 
z"/>
<path fill="#3F4042" opacity="1.000000" stroke="none" 
	d="
M243.064636,72.999084 
	C243.017914,83.361397 242.971176,93.723709 242.924103,104.960388 
	C243.142212,112.409256 245.490829,114.776299 251.950912,114.904778 
	C253.611633,114.937805 255.276215,114.859009 256.934082,114.936874 
	C261.238068,115.139023 263.744690,117.344902 263.974518,121.716743 
	C264.174377,125.517807 261.297150,128.665710 257.275238,128.949173 
	C249.704895,129.482727 242.302750,129.077789 235.978027,124.075813 
	C230.409790,118.640900 228.359177,112.067459 228.628632,104.300407 
	C228.978668,94.210281 228.650894,84.096642 228.579132,73.311523 
	C228.413971,72.318420 228.211517,72.065231 227.936081,71.870369 
	C228.207886,67.761124 227.922028,63.518711 228.865005,59.569729 
	C230.972855,50.742367 236.729294,45.153847 245.798370,43.674351 
	C256.254395,41.968594 266.213501,42.148411 273.949615,51.331226 
	C278.901337,57.208954 279.129578,63.948685 278.565613,71.467896 
	C273.395050,71.945274 268.671997,71.902580 263.966064,71.430634 
	C264.036530,61.170650 261.415802,57.965130 253.352219,57.998123 
	C244.962250,58.032452 242.950089,60.556915 243.005753,70.980743 
	C243.007523,71.312706 243.020538,71.644600 242.994904,72.233673 
	C242.995850,72.660248 243.030243,72.829666 243.064636,72.999084 
z"/>
<path fill="#F55E4D" opacity="1.000000" stroke="none" 
	d="
M243.528412,72.999405 
	C243.030243,72.829666 242.995850,72.660248 243.460175,72.241104 
	C250.622238,71.947548 257.285614,71.903717 263.948975,71.859886 
	C268.671997,71.902580 273.395050,71.945274 278.582092,71.917038 
	C299.711426,71.893188 320.376740,71.940262 341.507141,71.968384 
	C342.010040,72.123688 342.047882,72.297943 342.044861,72.736557 
	C309.333435,73.000519 276.662811,73.000114 243.528412,72.999405 
z"/>
<path fill="#E05848" opacity="1.000000" stroke="none" 
	d="
M227.472870,71.905655 
	C228.211517,72.065231 228.413971,72.318420 228.468079,72.864029 
	C197.962784,73.069016 167.532837,73.039902 136.649261,73.026245 
	C136.321121,72.721680 136.446640,72.401672 137.279404,72.007721 
	C144.304352,71.896576 150.622055,71.859367 156.939758,71.822159 
	C161.668976,71.864288 166.398209,71.906425 171.593246,71.886215 
	C190.375931,71.862900 208.692780,71.901924 227.472870,71.905655 
z"/>
<path fill="#F55F4E" opacity="1.000000" stroke="none" 
	d="
M357.381104,72.994278 
	C356.889221,72.810860 356.873962,72.629692 357.401611,72.215805 
	C364.281372,71.936424 370.618195,71.889771 376.955017,71.843117 
	C382.008026,71.889648 387.061066,71.936188 392.578400,71.912575 
	C408.247437,71.968529 423.452148,72.094635 438.895630,72.592636 
	C412.042145,72.975204 384.949951,72.985870 357.381104,72.994278 
z"/>
<path fill="#DE9F9E" opacity="1.000000" stroke="none" 
	d="
M470.905304,171.467957 
	C470.644165,171.897446 470.465790,171.874390 470.040344,171.742844 
	C469.860382,149.043411 469.927551,126.452492 470.036285,103.389999 
	C470.386841,104.427338 470.961029,105.935585 470.964844,107.445251 
	C471.018097,128.635178 470.993652,149.825302 470.905304,171.467957 
z"/>
<path fill="#F2867C" opacity="1.000000" stroke="none" 
	d="
M43.613686,103.065903 
	C44.049793,125.449425 44.100487,148.059677 44.171631,171.106033 
	C44.031193,171.597473 43.870312,171.652786 43.456146,171.675812 
	C43.211338,148.859909 43.219807,126.076263 43.613686,103.065903 
z"/>
<path fill="#F8614F" opacity="1.000000" stroke="none" 
	d="
M120.499428,71.918900 
	C121.227600,72.067978 121.492249,72.277794 121.755722,72.743134 
	C106.045464,72.895760 90.336395,72.792854 74.306374,72.422546 
	C89.335587,72.096634 104.685745,72.038124 120.499428,71.918900 
z"/>
<path fill="#60D3F2" opacity="1.000000" stroke="none" 
	d="
M86.134254,312.997437 
	C86.134529,304.331848 86.090324,296.165344 86.148376,287.999573 
	C86.197716,281.061493 88.974625,278.190002 95.798370,278.154510 
	C108.630592,278.087769 121.463753,278.081665 134.295853,278.160248 
	C140.464813,278.198029 143.055145,280.869354 143.073883,287.022308 
	C143.113998,300.188080 143.119980,313.354156 143.069717,326.519867 
	C143.045929,332.754639 140.829742,335.032532 134.720505,335.058746 
	C121.388206,335.115906 108.055389,335.109955 94.723015,335.062531 
	C88.920403,335.041901 86.287659,332.392151 86.156441,326.495636 
	C86.060059,322.164703 86.135338,317.829895 86.134254,312.997437 
z"/>
<path fill="#68ABE6" opacity="1.000000" stroke="none" 
	d="
M388.017700,264.051880 
	C384.362091,264.045715 381.199982,264.120331 378.044006,264.013672 
	C373.731384,263.867950 371.030518,261.614594 370.990753,257.253906 
	C370.858856,242.788651 370.842865,228.320267 371.004761,213.855591 
	C371.054382,209.420792 374.253876,207.231323 378.278229,207.176941 
	C392.243225,206.988220 406.214691,206.970535 420.178833,207.193283 
	C425.168671,207.272873 427.718018,210.076355 427.784271,215.282196 
	C427.955688,228.749069 427.964417,242.221176 427.787170,255.687897 
	C427.709778,261.567719 424.924377,263.995697 418.944031,264.032593 
	C408.800995,264.095154 398.657288,264.051086 388.017700,264.051880 
z"/>
<path fill="#68ABE6" opacity="1.000000" stroke="none" 
	d="
M356.793762,221.115875 
	C356.793457,232.430222 356.840179,243.262192 356.777252,254.093506 
	C356.733582,261.608612 354.300659,264.029968 346.941376,264.044312 
	C334.276672,264.068939 321.611847,264.072998 308.947205,264.041779 
	C302.072113,264.024841 299.887848,261.914795 299.866486,255.198151 
	C299.824646,242.033630 299.820190,228.868729 299.871674,215.704269 
	C299.894501,209.871353 302.527863,207.154648 308.395538,207.110672 
	C320.892944,207.017014 333.391541,207.067398 345.889618,207.083282 
	C354.495270,207.094238 356.752045,209.400223 356.793427,218.133575 
	C356.797363,218.966766 356.793945,219.800003 356.793762,221.115875 
z"/>
<path fill="#BBD4E5" opacity="1.000000" stroke="none" 
	d="
M136.210571,349.272430 
	C141.137909,350.458191 143.183884,353.061981 143.098053,357.946808 
	C142.866791,371.108856 143.044266,384.277771 143.008499,397.443817 
	C142.990707,403.995575 140.938797,406.007111 134.294022,406.022156 
	C121.127937,406.051941 107.961700,406.048828 94.795609,406.021881 
	C89.068237,406.010132 86.109016,403.277649 86.066360,397.613708 
	C85.967216,384.448334 85.953300,371.280884 86.074677,358.115875 
	C86.125206,352.634857 89.742599,349.111328 95.305061,349.082001 
	C108.802368,349.010834 122.300629,349.121582 136.210571,349.272430 
z"/>
<path fill="#BBD4E5" opacity="1.000000" stroke="none" 
	d="
M313.113983,278.031677 
	C324.591370,278.031830 335.585358,278.001160 346.579041,278.043152 
	C353.632782,278.070068 356.923218,281.388123 356.945496,288.491272 
	C356.983124,300.484436 356.987701,312.477936 356.944641,324.471069 
	C356.915100,332.700836 354.522339,335.016296 346.250183,335.018585 
	C333.923737,335.022003 321.597290,335.031342 309.270874,335.014709 
	C301.783722,335.004578 299.979706,333.157318 299.971832,325.517456 
	C299.959167,313.191040 299.965149,300.864594 299.969360,288.538177 
	C299.972260,280.158234 302.108398,278.058014 310.631531,278.031952 
	C311.297821,278.029907 311.964142,278.031647 313.113983,278.031677 
z"/>
<path fill="#BBD4E5" opacity="1.000000" stroke="none" 
	d="
M214.032104,300.001587 
	C214.031860,308.995117 214.049194,317.489136 214.025803,325.983063 
	C214.006500,332.990173 212.079849,334.994781 205.264816,335.010101 
	C192.107544,335.039703 178.950119,335.036255 165.792831,335.009766 
	C160.262863,334.998596 157.285858,332.649567 157.169815,327.011871 
	C156.888855,313.361023 156.947128,299.698669 157.148178,286.045074 
	C157.211502,281.745117 161.007446,278.158997 165.369827,278.108734 
	C179.191376,277.949371 193.017761,277.928589 206.838364,278.126587 
	C211.279007,278.190155 213.950455,281.485199 214.014816,286.011810 
	C214.078751,290.507751 214.030899,295.005249 214.032104,300.001587 
z"/>
<path fill="#BBD4E5" opacity="1.000000" stroke="none" 
	d="
M157.059204,397.478485 
	C157.046951,384.539795 157.020370,372.046967 157.053711,359.554260 
	C157.072723,352.426666 160.349762,349.081329 167.370102,349.056183 
	C179.529602,349.012634 191.689606,348.997986 203.848923,349.061066 
	C211.546494,349.100983 214.025772,351.617798 214.029678,359.114380 
	C214.036377,371.940308 214.059265,384.766357 214.018799,397.592163 
	C213.998871,403.907654 211.933929,405.996216 205.668900,406.017639 
	C192.843124,406.061554 180.017075,406.035889 167.191147,406.029877 
	C159.721359,406.026367 158.957336,405.406555 157.059204,397.478485 
z"/>
<path fill="#BAD4E5" opacity="1.000000" stroke="none" 
	d="
M245.019043,406.031860 
	C241.861374,406.030823 239.199539,406.057251 236.538483,406.023071 
	C230.719223,405.948364 228.980392,404.166534 228.966888,398.112183 
	C228.937195,384.804810 228.945221,371.497314 228.962616,358.189911 
	C228.970398,352.241974 231.219727,349.285614 237.044525,349.162292 
	C250.345734,348.880707 263.661102,348.880493 276.962250,349.163208 
	C282.781464,349.286926 285.029449,352.247131 285.037323,358.198181 
	C285.054901,371.505585 285.063812,384.813080 285.032837,398.120422 
	C285.018402,404.323792 283.282990,406.006927 276.953949,406.022827 
	C266.474457,406.049133 255.994797,406.031128 245.019043,406.031860 
z"/>
<path fill="#BAD4E5" opacity="1.000000" stroke="none" 
	d="
M245.039185,278.032410 
	C255.531143,278.032593 265.530151,278.002777 275.528870,278.043152 
	C282.533783,278.071411 285.034210,280.638367 285.040009,287.694641 
	C285.050812,300.859833 285.063995,314.025055 285.031982,327.190155 
	C285.018066,332.909698 283.025391,334.963593 277.209747,334.993988 
	C263.711639,335.064575 250.212616,335.067841 236.714569,334.991974 
	C230.927246,334.959442 228.980362,332.901093 228.967163,327.114685 
	C228.937500,314.116211 228.951889,301.117645 228.958435,288.119110 
	C228.962296,280.429321 231.329010,278.070343 239.046738,278.033844 
	C240.879837,278.025177 242.712982,278.032440 245.039185,278.032410 
z"/>
<path fill="#BAD4E5" opacity="1.000000" stroke="none" 
	d="
M285.044037,228.002655 
	C285.043518,237.488220 285.072205,246.474472 285.032410,255.460419 
	C285.004181,261.829163 282.969086,263.966705 276.797607,263.988770 
	C263.485016,264.036407 250.171936,264.046204 236.859451,263.982605 
	C231.201965,263.955566 229.006302,261.767029 228.979630,256.114777 
	C228.915237,242.469482 228.929993,228.823593 228.974106,215.178146 
	C228.990280,210.178696 231.853607,207.116882 236.953217,207.068039 
	C250.264755,206.940506 263.579041,206.945358 276.890747,207.062729 
	C282.245331,207.109955 284.984436,210.141144 285.034546,215.521744 
	C285.071747,219.515244 285.043213,223.509354 285.044037,228.002655 
z"/>
<path fill="#C5DEF3" opacity="1.000000" stroke="none" 
	d="
M409.585938,342.971130 
	C405.298370,346.218781 400.166534,349.034393 395.871277,352.803406 
	C388.210022,359.526062 385.037323,368.513885 385.014709,378.597076 
	C384.968109,399.399567 385.004639,420.202301 385.016602,441.465820 
	C380.639954,441.940033 376.253662,441.953339 371.396484,441.926025 
	C370.948883,420.288635 371.512634,398.674469 370.818604,377.100800 
	C370.296631,360.876373 387.402710,341.396057 405.132751,342.955017 
	C406.451599,343.070953 407.789520,342.969238 409.585938,342.971130 
z"/>
<path fill="#DA2E26" opacity="1.000000" stroke="none" 
	d="
M129.059906,124.296577 
	C135.342728,128.894730 142.678406,129.486572 150.251785,128.967087 
	C154.785889,128.656082 157.321671,125.902718 157.157486,121.562042 
	C156.986771,117.048347 154.265808,115.153389 150.068542,114.936363 
	C148.416992,114.850975 146.757187,114.940605 145.102036,114.906563 
	C138.736771,114.775673 136.414627,112.420830 136.141235,105.385956 
	C141.216934,103.652435 146.172943,101.490211 151.247955,101.160576 
	C160.484268,100.560661 168.279800,107.052704 170.892975,116.263504 
	C173.536789,125.582260 169.565750,135.176987 160.878021,140.461502 
	C153.578659,144.901505 142.194290,144.079758 136.499603,137.717072 
	C133.236343,134.071045 131.481140,129.075287 129.059906,124.296577 
z"/>
<path fill="#D82F27" opacity="1.000000" stroke="none" 
	d="
M349.953644,124.593536 
	C356.177521,128.968048 363.398224,129.513062 370.815063,128.939560 
	C375.029938,128.613663 377.580322,126.165314 377.836670,121.917625 
	C378.066681,118.106529 374.689087,115.120033 370.345673,114.934525 
	C368.851746,114.870720 367.352722,114.939293 365.856689,114.910675 
	C359.206207,114.783440 357.088654,112.677948 356.829407,105.501755 
	C361.411652,102.608856 365.917603,100.659286 371.426941,100.864998 
	C382.869080,101.292221 392.006958,110.357780 391.998596,122.022263 
	C391.990234,133.611526 382.761475,142.920410 371.199799,143.001572 
	C359.735840,143.082047 350.897919,135.583511 349.953644,124.593536 
z"/>
<path fill="#DA2E26" opacity="1.000000" stroke="none" 
	d="
M235.981598,124.468117 
	C242.302750,129.077789 249.704895,129.482727 257.275238,128.949173 
	C261.297150,128.665710 264.174377,125.517807 263.974518,121.716743 
	C263.744690,117.344902 261.238068,115.139023 256.934082,114.936874 
	C255.276215,114.859009 253.611633,114.937805 251.950912,114.904778 
	C245.490829,114.776299 243.142212,112.409256 242.981750,105.427361 
	C248.058228,103.673515 253.017914,101.539825 258.108582,101.159500 
	C266.375458,100.541885 272.512512,105.017693 275.982849,112.288048 
	C279.374908,119.394356 279.407166,126.784470 274.667175,133.553802 
	C269.428406,141.035461 260.533356,144.554688 252.506454,142.698181 
	C244.985260,140.958633 235.982559,132.889679 235.981598,124.468117 
z"/>
<path fill="#000000" opacity="1.000000" stroke="none" 
	d="
M376.970093,71.404022 
	C370.618195,71.889771 364.281372,71.936424 357.478668,71.954208 
	C357.007355,70.927330 356.997223,69.929314 356.997162,68.931305 
	C356.996613,60.041313 362.869904,55.572624 371.330475,58.305088 
	C374.815155,59.430515 377.465424,61.639347 377.028229,65.977425 
	C376.862244,67.624641 376.990845,69.301544 376.970093,71.404022 
z"/>
<path fill="#000000" opacity="1.000000" stroke="none" 
	d="
M156.959778,71.389000 
	C150.622055,71.859367 144.304352,71.896576 137.524002,71.879608 
	C137.040909,70.830612 137.006744,69.835838 137.002151,68.840942 
	C136.959473,59.612801 142.116119,55.849239 151.086182,58.557278 
	C156.217407,60.106377 157.042908,61.843002 156.959778,71.389000 
z"/>
<path fill="#000000" opacity="1.000000" stroke="none" 
	d="
M263.966064,71.430634 
	C257.285614,71.903717 250.622238,71.947548 243.493591,71.983948 
	C243.020538,71.644600 243.007523,71.312706 243.005753,70.980743 
	C242.950089,60.556915 244.962250,58.032452 253.352219,57.998123 
	C261.415802,57.965130 264.036530,61.170650 263.966064,71.430634 
z"/>
</svg>