<?xml version="1.0" encoding="UTF-8"?>
<svg version="1.1" xmlns="http://www.w3.org/2000/svg" width="48" height="48">
<path d="M0 0 C1.06468506 0.0002417 1.06468506 0.0002417 2.15087891 0.00048828 C8.84574615 0.14653016 13.3856037 1.5731037 18.1875 6.375 C18.1875 9.015 18.1875 11.655 18.1875 14.375 C6.3075 14.375 -5.5725 14.375 -17.8125 14.375 C-17.8125 6.375 -17.8125 6.375 -15.625 4 C-10.37677439 0.96769187 -6.0521313 -0.01273537 0 0 Z " fill="#3098F0" transform="translate(23.8125,27.625)"/>
<path d="M0 0 C2.5 1.5 2.5 1.5 4 4 C4.791013 8.02098277 4.62153384 10.96411027 2.5 14.5 C-1.03588973 16.62153384 -3.97901723 16.791013 -8 16 C-10.5 14.5 -10.5 14.5 -12 12 C-12.791013 7.97901723 -12.62153384 5.03588973 -10.5 1.5 C-6.96411027 -0.62153384 -4.02098277 -0.791013 0 0 Z " fill="#3199EF" transform="translate(28,6)"/>
</svg>
