<svg version="1.1" id="Layer_1" xmlns="http://www.w3.org/2000/svg" xmlns:xlink="http://www.w3.org/1999/xlink" x="0px" y="0px"
	 width="100%" viewBox="0 0 250 251" enable-background="new 0 0 250 251" xml:space="preserve">
<path fill="#878787" opacity="1.000000" stroke="none" 
	d="
M101.000000,1.000000 
	C118.687561,1.000000 136.375122,1.000000 154.404968,1.301589 
	C154.138168,1.817837 153.524094,2.020346 152.927887,2.266209 
	C152.869171,2.290425 152.920029,2.580383 152.922668,2.746997 
	C178.921204,7.955814 200.800262,18.798840 218.222137,40.431129 
	C214.935760,43.334797 211.533737,46.158428 208.338028,49.198891 
	C199.299973,57.797867 190.252014,66.391006 181.421616,75.200630 
	C179.012527,77.604042 177.207108,76.715080 175.619843,74.951614 
	C167.024506,65.402214 155.717438,59.825474 144.060242,56.007267 
	C136.180862,53.426445 127.046425,54.925705 118.564896,53.866821 
	C109.655830,52.754562 103.231079,59.892605 94.866127,60.142429 
	C88.164032,68.212387 77.130257,70.507156 70.749222,79.838448 
	C66.452240,86.122131 61.263691,92.173920 58.186756,99.015594 
	C51.286190,114.359245 51.078636,130.636810 55.509144,146.774094 
	C56.735954,151.242538 59.541428,155.302963 61.793762,159.457794 
	C64.375153,164.219604 66.384254,169.592636 69.987686,173.439621 
	C78.720329,182.762543 88.398872,191.120819 100.995583,195.072098 
	C103.337547,195.806717 105.899567,196.058594 108.050636,197.145554 
	C117.887672,202.116226 128.129059,199.757233 138.315338,199.279175 
	C143.912354,199.016479 148.121445,195.617249 152.980576,193.873611 
	C162.390442,190.497025 169.953568,184.947556 177.024063,178.465210 
	C177.029297,178.628281 176.987305,178.951904 176.997894,179.195984 
	C177.008469,179.440048 177.021729,179.928452 177.229401,180.250916 
	C179.282745,181.049973 181.125824,181.928406 182.974503,181.940338 
	C199.534698,182.047150 216.096130,182.044861 232.656433,181.945618 
	C234.727478,181.933212 236.794037,181.171249 239.298874,180.933273 
	C239.343811,183.406387 238.339844,185.130005 236.906616,187.159958 
	C234.207138,190.983429 232.555252,195.488342 229.150024,199.114563 
	C225.470566,203.032837 222.852264,207.927261 219.355240,212.042511 
	C215.307465,216.805862 211.156693,221.598740 206.403839,225.612946 
	C201.647812,229.629868 196.149170,232.788956 190.869141,236.156464 
	C187.381210,238.381042 183.798645,240.503036 180.083282,242.310974 
	C177.005936,243.808411 173.677856,244.794373 170.449036,245.974564 
	C169.383423,246.364044 168.300278,246.751511 167.191620,246.968857 
	C163.695297,247.654251 160.183060,248.258499 156.469650,248.931763 
	C157.110291,250.216202 157.555145,251.108109 158.000000,252.000000 
	C157.250000,252.000000 156.500000,252.000000 155.669556,251.683289 
	C153.844177,250.018433 152.035309,248.207092 151.000000,252.000000 
	C134.645767,252.000000 118.291542,252.000000 101.445526,251.602631 
	C100.349167,250.806534 99.793373,250.193298 99.132309,250.042969 
	C93.753433,248.819885 88.156143,248.234421 83.013092,246.379669 
	C76.729027,244.113434 70.559029,241.245911 64.815010,237.837402 
	C57.184658,233.309601 49.539600,228.569077 42.789551,222.867798 
	C37.030376,218.003433 32.565075,211.617981 27.456367,205.969650 
	C22.408312,200.388382 17.555716,194.067001 14.470358,187.757233 
	C9.000608,176.571228 6.661649,163.858398 2.920603,151.813034 
	C2.693100,151.080521 1.658864,150.598557 0.999998,150.000000 
	C1.000000,134.645767 1.000000,119.291542 1.385000,103.657242 
	C3.481197,97.656700 5.053253,91.889923 6.937380,86.226990 
	C9.529100,78.437309 11.044042,70.346130 16.573416,63.576187 
	C22.042959,56.879501 25.641569,48.611122 31.323332,42.140770 
	C41.986397,29.997747 54.521938,19.667589 68.919769,12.292957 
	C77.028084,8.139848 85.640778,4.316620 95.182884,3.783890 
	C97.167542,3.673087 99.063278,1.969527 101.000000,1.000000 
z"/>
<path fill="#000000" opacity="1.000000" stroke="none" 
	d="
M177.021729,179.928452 
	C177.021729,179.928452 177.008469,179.440048 177.466980,179.216431 
	C197.894531,178.992828 217.863571,178.992828 237.832596,178.992828 
	C237.830566,178.762604 237.828552,178.532364 237.826523,178.302139 
	C217.557297,178.302139 197.288055,178.302139 177.018829,178.302139 
	C169.953568,184.947556 162.390442,190.497025 152.980576,193.873611 
	C148.121445,195.617249 143.912354,199.016479 138.315338,199.279175 
	C128.129059,199.757233 117.887672,202.116226 108.050636,197.145554 
	C105.899567,196.058594 103.337547,195.806717 100.995583,195.072098 
	C88.398872,191.120819 78.720329,182.762543 69.987686,173.439621 
	C66.384254,169.592636 64.375153,164.219604 61.793762,159.457794 
	C59.541428,155.302963 56.735954,151.242538 55.509144,146.774094 
	C51.078636,130.636810 51.286190,114.359245 58.186756,99.015594 
	C61.263691,92.173920 66.452240,86.122131 70.749222,79.838448 
	C77.130257,70.507156 88.164032,68.212387 94.866127,60.142429 
	C103.231079,59.892605 109.655830,52.754562 118.564896,53.866821 
	C127.046425,54.925705 136.180862,53.426445 144.060242,56.007267 
	C155.717438,59.825474 167.024506,65.402214 175.619843,74.951614 
	C177.207108,76.715080 179.012527,77.604042 181.421616,75.200630 
	C190.252014,66.391006 199.299973,57.797867 208.338028,49.198891 
	C211.533737,46.158428 214.935760,43.334797 218.222137,40.431129 
	C200.800262,18.798840 178.921204,7.955814 152.922668,2.746997 
	C152.920029,2.580383 152.869171,2.290425 152.927887,2.266209 
	C153.524094,2.020346 154.138168,1.817837 154.873627,1.301589 
	C186.929855,1.000000 218.859711,1.000000 251.000000,1.000000 
	C251.000000,35.353943 251.000000,69.708313 250.613052,104.705780 
	C249.775284,103.522789 249.324478,101.696701 248.697815,99.477928 
	C233.026382,99.056908 217.530853,99.012802 202.035278,99.003876 
	C178.040283,98.990044 154.045166,98.970413 130.050674,99.080978 
	C128.736221,99.087036 127.427124,100.262459 126.062355,101.246902 
	C126.065613,102.071518 126.122040,102.542793 126.114098,103.363815 
	C126.096725,119.470497 126.143730,135.227417 126.154449,151.412018 
	C127.744652,152.216278 129.370605,152.918976 130.997696,152.921661 
	C168.489792,152.983597 205.982010,152.969360 243.474213,152.969299 
	C245.115204,152.969299 246.756180,152.969315 247.370697,152.969315 
	C249.035812,151.148193 250.017899,150.074097 251.000000,149.000000 
	C251.000000,183.256531 251.000000,217.513062 251.000000,252.000000 
	C220.312820,252.000000 189.625076,252.000000 158.468658,252.000000 
	C157.555145,251.108109 157.110291,250.216202 156.469650,248.931763 
	C160.183060,248.258499 163.695297,247.654251 167.191620,246.968857 
	C168.300278,246.751511 169.383423,246.364044 170.449036,245.974564 
	C173.677856,244.794373 177.005936,243.808411 180.083282,242.310974 
	C183.798645,240.503036 187.381210,238.381042 190.869141,236.156464 
	C196.149170,232.788956 201.647812,229.629868 206.403839,225.612946 
	C211.156693,221.598740 215.307465,216.805862 219.355240,212.042511 
	C222.852264,207.927261 225.470566,203.032837 229.150024,199.114563 
	C232.555252,195.488342 234.207138,190.983429 236.906616,187.159958 
	C238.339844,185.130005 239.343811,183.406387 238.993164,180.637939 
	C217.841415,180.086761 197.431580,180.007599 177.021729,179.928452 
M124.968414,108.005127 
	C124.890030,106.768326 124.811653,105.531525 124.733269,104.294716 
	C124.569412,104.301758 124.405556,104.308792 124.241699,104.315834 
	C124.241699,119.829659 124.241699,135.343491 124.241699,150.857315 
	C124.483955,150.859467 124.726204,150.861603 124.968460,150.863754 
	C124.968460,136.872147 124.968460,122.880554 124.968414,108.005127 
M239.408173,180.989197 
	C239.466400,180.796143 239.524612,180.603088 239.582855,180.410034 
	C239.393234,180.479141 239.203629,180.548233 239.408173,180.989197 
z"/>
<path fill="#878787" opacity="1.000000" stroke="none" 
	d="
M251.000000,148.531342 
	C250.017899,150.074097 249.035812,151.148193 247.370697,152.969315 
	C246.756180,152.969315 245.115204,152.969299 243.474213,152.969299 
	C205.982010,152.969360 168.489792,152.983597 130.997696,152.921661 
	C129.370605,152.918976 127.744652,152.216278 126.449020,151.182678 
	C127.179764,149.300278 127.919403,148.077072 127.927345,146.849136 
	C128.012421,133.697311 128.038345,120.544189 127.903671,107.393227 
	C127.888664,105.927773 126.779961,104.473518 126.178467,103.014069 
	C126.122040,102.542793 126.065613,102.071518 126.521057,101.300720 
	C165.589645,101.001030 204.146378,101.018219 242.702972,100.952568 
	C244.760468,100.949066 246.816788,100.247314 248.873657,99.870613 
	C249.324478,101.696701 249.775284,103.522789 250.613052,105.174438 
	C251.000000,119.354225 251.000000,133.708450 251.000000,148.531342 
z"/>
<path fill="#000000" opacity="1.000000" stroke="none" 
	d="
M0.999998,150.468658 
	C1.658864,150.598557 2.693100,151.080521 2.920603,151.813034 
	C6.661649,163.858398 9.000608,176.571228 14.470358,187.757233 
	C17.555716,194.067001 22.408312,200.388382 27.456367,205.969650 
	C32.565075,211.617981 37.030376,218.003433 42.789551,222.867798 
	C49.539600,228.569077 57.184658,233.309601 64.815010,237.837402 
	C70.559029,241.245911 76.729027,244.113434 83.013092,246.379669 
	C88.156143,248.234421 93.753433,248.819885 99.132309,250.042969 
	C99.793373,250.193298 100.349167,250.806534 100.976868,251.602631 
	C67.739006,252.000000 34.478012,252.000000 1.000000,252.000000 
	C1.000000,218.312744 1.000000,184.625031 0.999998,150.468658 
z"/>
<path fill="#000000" opacity="1.000000" stroke="none" 
	d="
M100.531342,1.000000 
	C99.063278,1.969527 97.167542,3.673087 95.182884,3.783890 
	C85.640778,4.316620 77.028084,8.139848 68.919769,12.292957 
	C54.521938,19.667589 41.986397,29.997747 31.323332,42.140770 
	C25.641569,48.611122 22.042959,56.879501 16.573416,63.576187 
	C11.044042,70.346130 9.529100,78.437309 6.937380,86.226990 
	C5.053253,91.889923 3.481197,97.656700 1.385000,103.188583 
	C1.000000,69.073784 1.000000,35.147572 1.000000,1.000000 
	C34.020565,1.000000 67.041626,1.000000 100.531342,1.000000 
z"/>
<path fill="#000000" opacity="1.000000" stroke="none" 
	d="
M151.399994,252.000000 
	C152.035309,248.207092 153.844177,250.018433 155.294556,251.683289 
	C153.933334,252.000000 152.866653,252.000000 151.399994,252.000000 
z"/>
<path fill="#909090" opacity="1.000000" stroke="none" 
	d="
M177.229401,180.250916 
	C197.431580,180.007599 217.841415,180.086761 238.556976,180.461258 
	C236.794037,181.171249 234.727478,181.933212 232.656433,181.945618 
	C216.096130,182.044861 199.534698,182.047150 182.974503,181.940338 
	C181.125824,181.928406 179.282745,181.049973 177.229401,180.250916 
z"/>
<path fill="#909090" opacity="1.000000" stroke="none" 
	d="
M177.024063,178.465210 
	C197.288055,178.302139 217.557297,178.302139 237.826523,178.302139 
	C237.828552,178.532364 237.830566,178.762604 237.832596,178.992828 
	C217.863571,178.992828 197.894531,178.992828 177.456406,178.972366 
	C176.987305,178.951904 177.029297,178.628281 177.024063,178.465210 
z"/>
<path fill="#FFFFFF" opacity="1.000000" stroke="none" 
	d="
M248.697800,99.477928 
	C246.816788,100.247314 244.760468,100.949066 242.702972,100.952568 
	C204.146378,101.018219 165.589645,101.001030 126.574234,100.947388 
	C127.427124,100.262459 128.736221,99.087036 130.050674,99.080978 
	C154.045166,98.970413 178.040283,98.990044 202.035278,99.003876 
	C217.530853,99.012802 233.026382,99.056908 248.697800,99.477928 
z"/>
<path fill="#909090" opacity="1.000000" stroke="none" 
	d="
M126.114105,103.363815 
	C126.779961,104.473518 127.888664,105.927773 127.903671,107.393227 
	C128.038345,120.544189 128.012421,133.697311 127.927345,146.849136 
	C127.919403,148.077072 127.179764,149.300278 126.485298,150.755005 
	C126.143730,135.227417 126.096725,119.470497 126.114105,103.363815 
z"/>
<path fill="#878787" opacity="1.000000" stroke="none" 
	d="
M124.968437,108.447037 
	C124.968460,122.880554 124.968460,136.872147 124.968460,150.863754 
	C124.726204,150.861603 124.483955,150.859467 124.241699,150.857315 
	C124.241699,135.343491 124.241699,119.829659 124.241699,104.315834 
	C124.405556,104.308792 124.569412,104.301758 124.733269,104.294716 
	C124.811653,105.531525 124.890030,106.768326 124.968437,108.447037 
z"/>
<path fill="#878787" opacity="1.000000" stroke="none" 
	d="
M239.211090,180.803253 
	C239.203629,180.548233 239.393234,180.479141 239.582855,180.410034 
	C239.524612,180.603088 239.466400,180.796143 239.211090,180.803253 
z"/>
</svg>